<svg width="24" height="21" viewBox="0 0 24 21" fill="none" xmlns="http://www.w3.org/2000/svg">
<path d="M7.68137 9.08346C7.09025 8.91327 6.49914 8.82692 5.92414 8.82692C5.03621 8.82692 4.29531 9.02983 3.72081 9.27831C4.27467 7.2507 5.60517 3.75211 8.25561 3.35812C8.50107 3.32161 8.70222 3.14413 8.76918 2.90522L9.34846 0.833299C9.3973 0.658079 9.36835 0.470524 9.2684 0.318466C9.16846 0.166408 9.00784 0.0649519 8.82784 0.0402803C8.63223 0.0135946 8.43284 0 8.23522 0C5.05384 0 1.90317 3.32061 0.57367 8.07519C-0.206759 10.8646 -0.4356 15.0583 1.48677 17.6979C2.56251 19.1749 4.13192 19.9637 6.15147 20.0425C6.15978 20.0427 6.16784 20.043 6.17614 20.043C8.66798 20.043 10.8776 18.3648 11.5498 15.9623C11.9513 14.5261 11.7698 13.0198 11.0382 11.7201C10.3144 10.4349 9.12239 9.49809 7.68137 9.08346Z" fill="#1B75BB"/>
<path d="M23.2796 11.7202C22.5558 10.4347 21.3638 9.49797 19.9228 9.08334C19.3316 8.91316 18.7405 8.82681 18.1658 8.82681C17.2779 8.82681 16.5367 9.02972 15.9622 9.2782C16.5161 7.25061 17.8466 3.75206 20.4972 3.35808C20.7427 3.32157 20.9436 3.14409 21.0108 2.90518L21.5901 0.833288C21.6389 0.658071 21.61 0.470518 21.51 0.318462C21.4103 0.166406 21.2497 0.0649511 21.0695 0.0402797C20.8741 0.0135944 20.6747 0 20.4769 0C17.2955 0 14.1448 3.32056 12.8151 8.07509C12.0349 10.8645 11.8061 15.0581 13.7287 17.6982C14.8042 19.1749 16.3738 19.9639 18.3931 20.0425C18.4014 20.0427 18.4095 20.043 18.418 20.043C20.9096 20.043 23.1195 18.3648 23.7917 15.9624C24.1927 14.5261 24.0109 13.0197 23.2796 11.7202Z" fill="#1B75BB"/>
</svg>
