<svg width="20" height="20" viewBox="0 0 20 20" fill="none" xmlns="http://www.w3.org/2000/svg">
<path d="M10 20C15.5228 20 20 15.5228 20 10C20 4.47715 15.5228 0 10 0C4.47715 0 0 4.47715 0 10C0 15.5228 4.47715 20 10 20Z" fill="#273B7A"/>
<path d="M19.7748 12.1166L13.6607 6.00293L8.5633 6.40977L5.95947 8.78652L6.29361 13.9567L12.0827 19.7822C15.9229 18.9686 18.9485 15.9517 19.7748 12.1166Z" fill="#121149"/>
<path d="M10.2183 9.08215V10.9986H13.2151C12.7901 12.3706 11.5117 13.3671 10.0003 13.3671C8.14182 13.3671 6.63514 11.8603 6.63514 10.0014C6.63506 8.14268 8.14166 6.63577 10.0002 6.63577C10.8687 6.63577 11.6578 6.96774 12.2549 7.50801L13.661 6.0024C12.6964 5.11871 11.4114 4.5791 10.0002 4.5791C7.00596 4.5791 4.57861 7.00673 4.57861 10.0015C4.57861 12.9962 7.00596 15.4238 10.0002 15.4238C12.9945 15.4238 15.4218 12.9962 15.4218 10.0015C15.4218 9.68775 15.3928 9.3811 15.3413 9.08215H10.2183Z" fill="#4285F4"/>
<path d="M10 6.63533C10.8686 6.63533 11.6577 6.96721 12.2547 7.50734L13.6608 6.00211C12.6963 5.11858 11.4113 4.5791 10 4.5791C7.92356 4.5791 6.12066 5.74679 5.20996 7.46075L6.86449 8.78564C7.35207 7.52836 8.57035 6.63533 10 6.63533Z" fill="#EA4335"/>
<path d="M6.63509 10.0015C6.63509 9.57266 6.71837 9.1641 6.86465 8.78695L5.21013 7.46191C4.8076 8.21961 4.57861 9.08367 4.57861 10.0015C4.57861 10.9236 4.80951 11.7916 5.21552 12.5518L6.86024 11.2039C6.71696 10.83 6.63509 10.4257 6.63509 10.0015Z" fill="#FBBC05"/>
<path d="M11.8714 12.7959C11.3362 13.1549 10.6935 13.3662 10.0006 13.3662C8.56629 13.3662 7.34492 12.4674 6.86055 11.2036L5.21582 12.5513C6.1284 14.2595 7.92836 15.4224 10.0005 15.4224C11.3462 15.4224 12.5764 14.931 13.5242 14.1194L11.8714 12.7959Z" fill="#34A853"/>
<path d="M15.4217 10.0008C15.4217 9.68729 15.3927 9.38082 15.3412 9.08203H10.2183V10.9975H13.215C12.9849 11.74 12.5031 12.3706 11.871 12.7945L13.5238 14.1177C14.685 13.1237 15.4217 11.6487 15.4217 10.0008Z" fill="#4285F4"/>
</svg>
