<svg width="20" height="20" viewBox="0 0 20 20" fill="none" xmlns="http://www.w3.org/2000/svg">
<path d="M19.6576 3.57692C19.4756 1.87146 18.1285 0.524241 16.4227 0.342374C12.1451 -0.114125 7.85492 -0.114125 3.57742 0.342374C1.87164 0.524393 0.524445 1.87146 0.342407 3.57692C-0.114136 7.854 -0.114136 12.1439 0.342407 16.421C0.524445 18.1266 1.87164 19.4737 3.57727 19.6557C7.85477 20.1122 12.1451 20.1122 16.4227 19.6557C18.1285 19.4737 19.4756 18.1266 19.6576 16.421C20.1141 12.1439 20.1141 7.85415 19.6576 3.57692V3.57692Z" fill="url(#paint0_radial_4_82)"/>
<path d="M18.5699 4.30132C18.4085 2.78803 17.2131 1.59269 15.6995 1.43112C11.9037 1.02621 8.09661 1.02621 4.30083 1.43112C2.78731 1.59269 1.59178 2.78803 1.43019 4.30132C1.02522 8.09653 1.02522 11.903 1.43019 15.6981C1.59178 17.2115 2.78731 18.4069 4.30083 18.5683C8.09661 18.9733 11.9037 18.9733 15.6993 18.5683C17.213 18.4069 18.4085 17.2115 18.5699 15.6981C18.9751 11.903 18.9751 8.09653 18.5699 4.30132V4.30132Z" fill="url(#paint1_linear_4_82)"/>
<path d="M0.299316 16.0059C0.313049 16.1441 0.32724 16.2824 0.342041 16.4207C0.524078 18.1266 1.87128 19.474 3.57706 19.6561C7.85455 20.1127 12.1449 20.1127 16.4224 19.6561C18.1281 19.474 19.4752 18.1266 19.6572 16.4207C19.672 16.2824 19.6862 16.1441 19.7001 16.0059H0.299316Z" fill="url(#paint2_linear_4_82)"/>
<path d="M19.6575 16.4236C19.9029 14.1255 20.0161 11.8237 19.9978 9.52223L15.4262 4.95132C14.8551 4.2994 14.0209 3.89251 13.0407 3.85726C11.0248 3.78464 9.0026 3.7883 6.98645 3.85757C5.31195 3.91524 4.14099 5.04057 3.8407 6.69455C3.78775 6.98657 3.75601 7.28239 3.71436 7.57654V12.4254C3.7374 12.5826 3.77127 12.739 3.7818 12.897C3.84894 13.903 4.26245 14.7647 4.92453 15.3477L9.57663 19.999C11.8597 20.015 14.1428 19.9015 16.4226 19.6582C18.1284 19.4762 19.4755 18.1291 19.6575 16.4236V16.4236Z" fill="url(#paint3_linear_4_82)"/>
<path d="M19.6574 16.4213C19.4756 18.1268 18.1281 19.4743 16.4226 19.6562C14.1431 19.8994 11.8594 20.0131 9.57672 19.9971L4.93164 15.3519C5.47012 15.8233 6.17203 16.1103 6.98654 16.141C9.00223 16.2166 11.0249 16.2147 13.0406 16.142C14.8637 16.0761 16.183 14.7268 16.2399 12.9036C16.3007 10.9679 16.3007 9.02708 16.2399 7.09133C16.214 6.25026 15.9187 5.5102 15.4292 4.9502L19.9979 9.51888C20.0159 11.8204 19.9027 14.1228 19.6574 16.4213Z" fill="url(#paint4_linear_4_82)"/>
<path d="M12.3602 7.83504C11.7746 7.19742 10.9343 6.79736 10.0003 6.79736C8.2312 6.79736 6.79688 8.23159 6.79688 10.0006C6.79688 10.9345 7.19696 11.7747 7.83463 12.3603L15.2463 19.7715C15.6386 19.7373 16.0309 19.6993 16.4229 19.6575C18.1287 19.4755 19.4759 18.1284 19.6579 16.4227C19.6997 16.0307 19.7377 15.6385 19.7719 15.2462L12.3602 7.83504Z" fill="url(#paint5_linear_4_82)"/>
<path d="M19.9613 12.1549L13.9964 6.1885C13.8572 6.0058 13.6379 5.88721 13.3906 5.88721C12.9698 5.88721 12.6284 6.22849 12.6284 6.64959C12.6284 6.897 12.747 7.11633 12.9296 7.25553L19.8547 14.1826C19.9017 13.5069 19.9372 12.8309 19.9613 12.1549V12.1549Z" fill="url(#paint6_linear_4_82)"/>
<path d="M3.71436 7.5763C3.75601 7.28217 3.78775 6.98636 3.8407 6.69437C4.14084 5.04049 5.31195 3.91523 6.98645 3.85757C9.0026 3.78831 11.0248 3.78464 13.0407 3.85726C14.8632 3.92286 16.1831 5.27208 16.24 7.09483C16.3006 9.03032 16.3006 10.9705 16.24 12.906C16.1831 14.7288 14.8637 16.0778 13.0408 16.1436C11.025 16.2164 9.00229 16.2182 6.9866 16.1425C5.16379 16.074 3.90372 14.7218 3.7818 12.8963C3.77127 12.7384 3.7374 12.5818 3.71436 12.4247C3.71436 10.8085 3.71436 9.19234 3.71436 7.5763V7.5763ZM10.0016 15.0633C10.9241 15.0633 11.8476 15.091 12.7689 15.0569C14.2135 15.0034 15.102 14.1414 15.1357 12.6986C15.1775 10.9007 15.1775 9.10034 15.1357 7.30231C15.102 5.85973 14.2129 4.97764 12.7689 4.94698C10.9362 4.90823 9.10147 4.90853 7.26874 4.94698C5.83579 4.97703 4.94467 5.84127 4.90576 7.26798C4.85632 9.0886 4.85632 10.9124 4.90576 12.733C4.94467 14.1596 5.83579 15.0038 7.26889 15.0569C8.17862 15.0908 9.09064 15.0633 10.0016 15.0633V15.0633Z" fill="url(#paint7_linear_4_82)"/>
<path d="M3.71436 7.5763C3.75601 7.28217 3.78775 6.98636 3.8407 6.69437C4.14084 5.04049 5.31195 3.91523 6.98645 3.85757C9.0026 3.78831 11.0248 3.78464 13.0407 3.85726C14.8632 3.92286 16.1831 5.27208 16.24 7.09483C16.3006 9.03032 16.3006 10.9705 16.24 12.906C16.1831 14.7288 14.8637 16.0778 13.0408 16.1436C11.025 16.2164 9.00229 16.2182 6.9866 16.1425C5.16379 16.074 3.90372 14.7218 3.7818 12.8963C3.77127 12.7384 3.7374 12.5818 3.71436 12.4247C3.71436 10.8085 3.71436 9.19234 3.71436 7.5763V7.5763ZM10.0016 15.0633C10.9241 15.0633 11.8476 15.091 12.7689 15.0569C14.2135 15.0034 15.102 14.1414 15.1357 12.6986C15.1775 10.9007 15.1775 9.10034 15.1357 7.30231C15.102 5.85973 14.2129 4.97764 12.7689 4.94698C10.9362 4.90823 9.10147 4.90853 7.26874 4.94698C5.83579 4.97703 4.94467 5.84127 4.90576 7.26798C4.85632 9.0886 4.85632 10.9124 4.90576 12.733C4.94467 14.1596 5.83579 15.0038 7.26889 15.0569C8.17862 15.0908 9.09064 15.0633 10.0016 15.0633V15.0633Z" fill="white"/>
<path d="M10.0003 6.7959C8.2312 6.7959 6.79688 8.23019 6.79688 9.99944C6.79688 11.7688 8.2312 13.2031 10.0003 13.2031C11.7696 13.2031 13.2037 11.7688 13.2037 9.99944C13.2037 8.23019 11.7696 6.7959 10.0003 6.7959ZM10.0003 12.1001C8.84018 12.1001 7.89978 11.1597 7.89978 9.99944C7.89978 8.83922 8.84018 7.89874 10.0003 7.89874C11.1604 7.89874 12.1008 8.83922 12.1008 9.99944C12.1008 11.1597 11.1604 12.1001 10.0003 12.1001Z" fill="white"/>
<path d="M14.1526 6.65022C14.1526 7.07071 13.8114 7.41162 13.3906 7.41162C12.9698 7.41162 12.6284 7.07071 12.6284 6.65022C12.6284 6.22958 12.9698 5.88867 13.3906 5.88867C13.8114 5.88867 14.1526 6.22958 14.1526 6.65022Z" fill="white"/>
<defs>
<radialGradient id="paint0_radial_4_82" cx="0" cy="0" r="1" gradientUnits="userSpaceOnUse" gradientTransform="translate(4.09989 17.4767) scale(22.0565 22.0543)">
<stop stop-color="#FAE100"/>
<stop offset="0.0544" stop-color="#FADC04"/>
<stop offset="0.1167" stop-color="#FBCE0E"/>
<stop offset="0.1829" stop-color="#FCB720"/>
<stop offset="0.2514" stop-color="#FE9838"/>
<stop offset="0.3054" stop-color="#FF7950"/>
<stop offset="0.4922" stop-color="#FF1C74"/>
<stop offset="1" stop-color="#6C1CD1"/>
</radialGradient>
<linearGradient id="paint1_linear_4_82" x1="7.67095" y1="8.6898" x2="-26.209" y2="-10.3705" gradientUnits="userSpaceOnUse">
<stop stop-color="#A1B5D8" stop-opacity="0"/>
<stop offset="0.3094" stop-color="#90A2BD" stop-opacity="0.309804"/>
<stop offset="0.7554" stop-color="#7C8B9C" stop-opacity="0.756863"/>
<stop offset="1" stop-color="#748290"/>
</linearGradient>
<linearGradient id="paint2_linear_4_82" x1="9.99965" y1="17.6531" x2="9.99965" y2="20.7711" gradientUnits="userSpaceOnUse">
<stop stop-color="#FAE100" stop-opacity="0"/>
<stop offset="0.3068" stop-color="#FCA800" stop-opacity="0.305882"/>
<stop offset="0.6275" stop-color="#FE7300" stop-opacity="0.627451"/>
<stop offset="0.8685" stop-color="#FF5200" stop-opacity="0.866667"/>
<stop offset="1" stop-color="#FF4500"/>
</linearGradient>
<linearGradient id="paint3_linear_4_82" x1="8.86212" y1="8.83596" x2="3.91312" y2="3.88628" gradientUnits="userSpaceOnUse">
<stop stop-color="#833AB4" stop-opacity="0"/>
<stop offset="1" stop-color="#833AB4"/>
</linearGradient>
<linearGradient id="paint4_linear_4_82" x1="13.7069" y1="18.291" x2="11.2363" y2="6.64444" gradientUnits="userSpaceOnUse">
<stop stop-color="#833AB4" stop-opacity="0"/>
<stop offset="1" stop-color="#833AB4"/>
</linearGradient>
<linearGradient id="paint5_linear_4_82" x1="14.6474" y1="14.6473" x2="4.72524" y2="4.72451" gradientUnits="userSpaceOnUse">
<stop stop-color="#833AB4" stop-opacity="0"/>
<stop offset="1" stop-color="#833AB4"/>
</linearGradient>
<linearGradient id="paint6_linear_4_82" x1="15.3832" y1="8.64268" x2="12.101" y2="5.3614" gradientUnits="userSpaceOnUse">
<stop stop-color="#833AB4" stop-opacity="0"/>
<stop offset="1" stop-color="#833AB4"/>
</linearGradient>
<linearGradient id="paint7_linear_4_82" x1="13.9709" y1="6.05892" x2="5.88212" y2="14.1494" gradientUnits="userSpaceOnUse">
<stop stop-color="#833AB4"/>
<stop offset="0.0922" stop-color="#9C3495"/>
<stop offset="0.2927" stop-color="#DC2546"/>
<stop offset="0.392" stop-color="#FD1D1D"/>
<stop offset="0.5589" stop-color="#FC6831"/>
<stop offset="0.6887" stop-color="#FC9B40"/>
<stop offset="0.7521" stop-color="#FCAF45"/>
<stop offset="0.7806" stop-color="#FDB750"/>
<stop offset="0.8656" stop-color="#FECB6A"/>
<stop offset="0.9415" stop-color="#FFD87A"/>
<stop offset="1" stop-color="#FFDC80"/>
</linearGradient>
</defs>
</svg>
