<svg width="20" height="20" viewBox="0 0 20 20" fill="none" xmlns="http://www.w3.org/2000/svg">
<path d="M16.4227 19.6576C12.1452 20.1141 7.85477 20.1141 3.57727 19.6576C1.87164 19.4756 0.524445 18.1284 0.342407 16.4226C-0.114136 12.1451 -0.114136 7.85477 0.342407 3.57727C0.524445 1.87164 1.87164 0.524445 3.57727 0.342407C7.85477 -0.114136 12.1451 -0.114136 16.4226 0.342407C18.1284 0.524445 19.4756 1.87164 19.6576 3.57727C20.1141 7.85477 20.1141 12.1451 19.6576 16.4226C19.4756 18.1284 18.1285 19.4756 16.4227 19.6576Z" fill="url(#paint0_linear_4_98)"/>
<path d="M18.5699 4.30305C18.4085 2.78964 17.2131 1.59419 15.6995 1.43261C11.9037 1.02767 8.09661 1.02767 4.30083 1.43261C2.78731 1.59419 1.59178 2.78964 1.43019 4.30305C1.02522 8.09857 1.02522 11.9054 1.43019 15.7007C1.59178 17.2143 2.78731 18.4098 4.30083 18.5712C8.09661 18.9763 11.9037 18.9763 15.6993 18.5712C17.213 18.4098 18.4085 17.2143 18.5699 15.7007C18.9751 11.9054 18.9751 8.09857 18.5699 4.30305V4.30305Z" fill="url(#paint1_linear_4_98)"/>
<path d="M0.299805 16.0098C0.313538 16.148 0.327728 16.2862 0.342529 16.4244C0.524567 18.1294 1.87177 19.4762 3.57755 19.6582C7.85504 20.1146 12.1454 20.1146 16.4229 19.6582C18.1286 19.4762 19.4757 18.1294 19.6577 16.4244C19.6725 16.2862 19.6867 16.148 19.7006 16.0098H0.299805Z" fill="url(#paint2_linear_4_98)"/>
<path d="M19.9959 9.29884L15.8445 5.14799C15.3792 5.41392 14.9692 5.56146 14.6604 5.64323C14.4867 5.68977 14.345 5.7151 14.243 5.72898C13.7749 5.24914 13.1212 4.95117 12.3976 4.95117C10.974 4.95117 9.81967 6.10522 9.81967 7.52901C9.81967 7.58043 9.82105 7.63124 9.8244 7.68189C9.83127 7.80532 9.84699 7.92662 9.87125 8.04455C9.27692 8.0357 7.34516 7.87703 5.50281 6.29792C5.50266 6.29792 5.50266 6.29777 5.50266 6.29777H5.5025L4.63367 5.42887C4.63367 5.42887 3.61438 7.2077 5.11295 8.5575C5.17871 8.63088 5.25104 8.70336 5.33023 8.77461C5.33649 8.78162 5.34305 8.78849 5.3493 8.79551C5.15262 8.78223 4.56104 8.72334 4.21863 8.48152C4.21863 8.48152 4.14981 9.56874 5.05573 10.3691L5.78723 11.1068C5.56445 11.1253 5.31802 11.1208 5.14667 11.0458C5.14667 11.0458 5.29834 11.6898 5.88458 12.2052L6.90936 13.2352C6.29459 13.5933 5.21838 14.0414 3.80176 13.9269L10.0183 20.0005C12.1543 19.9999 14.2902 19.8858 16.4229 19.6581C18.1287 19.4761 19.4759 18.1291 19.6579 16.4236C19.9111 14.0511 20.0235 11.6747 19.9959 9.29884V9.29884Z" fill="url(#paint3_linear_4_98)"/>
<path d="M16.1984 6.14915C15.7559 6.3806 15.0894 6.48755 14.8685 6.51837C14.8666 6.50769 14.8648 6.49747 14.863 6.48725C15.6142 6.02267 15.8441 5.14799 15.8441 5.14799C15.3789 5.41392 14.9689 5.56145 14.66 5.64323C14.4864 5.68976 14.3446 5.71494 14.2427 5.72897C13.7746 5.24899 13.1209 4.95117 12.3973 4.95117C10.9737 4.95117 9.81934 6.10506 9.81934 7.52899C9.81934 7.58026 9.82071 7.63122 9.82407 7.68172C9.83093 7.80514 9.84665 7.92644 9.87091 8.04437C9.18182 8.03415 6.69449 7.82284 4.63333 5.42887C4.63333 5.42887 3.48557 7.4312 5.41519 8.79899C5.41519 8.79899 4.63333 8.77457 4.21829 8.48149C4.21829 8.48149 4.09622 10.4109 6.31866 11.0212C6.31866 11.0212 5.53726 11.2168 5.14618 11.0457C5.14618 11.0457 5.53711 12.7063 7.491 12.8287C7.491 12.8287 6.08963 14.1115 3.80127 13.9269C4.92676 14.6394 6.26114 15.0518 7.6918 15.0518C11.7145 15.0518 14.9756 11.7912 14.9756 7.76899C14.9756 7.71879 14.9751 7.66859 14.9741 7.6184C14.9751 7.58865 14.9756 7.55905 14.9756 7.52899C14.9756 7.50809 14.9751 7.48719 14.9748 7.46629C15.7185 6.97074 16.1984 6.14915 16.1984 6.14915V6.14915Z" fill="white"/>
<defs>
<linearGradient id="paint0_linear_4_98" x1="6.64039" y1="2.81196" x2="11.699" y2="13.635" gradientUnits="userSpaceOnUse">
<stop stop-color="#00C3FF"/>
<stop offset="1" stop-color="#00B0ED"/>
</linearGradient>
<linearGradient id="paint1_linear_4_98" x1="14.2299" y1="12.2708" x2="-14.8266" y2="-3.31723" gradientUnits="userSpaceOnUse">
<stop stop-color="#00B0ED" stop-opacity="0"/>
<stop offset="1" stop-color="#00A2CE"/>
</linearGradient>
<linearGradient id="paint2_linear_4_98" x1="10.0001" y1="17.0867" x2="10.0001" y2="19.7065" gradientUnits="userSpaceOnUse">
<stop stop-color="#00B0ED" stop-opacity="0"/>
<stop offset="1" stop-color="#00A2CE"/>
</linearGradient>
<linearGradient id="paint3_linear_4_98" x1="19.1182" y1="18.8316" x2="9.34867" y2="9.06097" gradientUnits="userSpaceOnUse">
<stop stop-color="#00B0ED" stop-opacity="0"/>
<stop offset="1" stop-color="#00A2CE"/>
</linearGradient>
</defs>
</svg>
